<svg width="676" height="1210" viewBox="0 0 676 1210" fill="none" xmlns="http://www.w3.org/2000/svg">
<mask id="mask0_272_1439" style="mask-type:alpha" maskUnits="userSpaceOnUse" x="246" y="658" width="430" height="404">
<path d="M675.141 1062H568.793C564.887 1057.7 560.004 1051.45 554.145 1043.25C548.48 1035.05 542.23 1025.48 535.395 1014.54C528.559 1003.41 522.895 994.227 518.402 987L491.449 942.469C479.34 922.547 470.16 908.973 463.91 901.746C457.855 894.324 450.824 889.637 442.816 887.684C435.004 885.535 421.625 884.461 402.68 884.461H387.738V988.172C387.738 999.109 388.91 1007.9 391.254 1014.54C393.598 1021.18 399.066 1026.26 407.66 1029.77C416.449 1033.29 429.145 1035.05 445.746 1035.05V1062H246.527V1035.05C270.746 1035.05 286.273 1031.53 293.109 1024.5C300.141 1017.47 303.656 1005.36 303.656 988.172V737.391C303.656 720.398 300.238 708.387 293.402 701.355C286.762 694.129 271.137 690.516 246.527 690.516V662.977L338.52 660.047C345.551 659.656 353.559 659.363 362.543 659.168C371.723 658.973 380.219 658.875 388.031 658.875C394.086 658.875 404.145 659.07 418.207 659.461C437.934 660.047 456.391 661.219 473.578 662.977C490.766 664.734 504.34 666.98 514.301 669.715C528.949 673.426 542.816 679.578 555.902 688.172C569.184 696.766 579.926 708.094 588.129 722.156C596.527 736.219 600.727 752.527 600.727 771.082C600.727 784.363 597.797 797.254 591.938 809.754C586.273 822.254 576.996 833.387 564.105 843.152C551.41 852.918 534.613 860.633 513.715 866.297C527.973 874.695 540.082 885.145 550.043 897.645C560.004 909.949 575.629 932.703 596.918 965.906C609.223 984.852 619.379 999.207 627.387 1008.97C635.395 1018.54 642.719 1025.09 649.359 1028.6C656.195 1031.92 664.789 1034.07 675.141 1035.05V1062ZM510.492 770.496C510.492 738.855 500.824 717.859 481.488 707.508C462.348 697.156 437.25 691.98 406.195 691.98C401.898 691.98 398.48 692.078 395.941 692.273C393.598 692.273 390.863 692.273 387.738 692.273V851.941H406.195C435.688 851.941 460.395 847.156 480.316 837.586C500.434 828.016 510.492 805.652 510.492 770.496Z" fill="#74A0CD"/>
</mask>
<g mask="url(#mask0_272_1439)">
<path d="M388.5 682.5H405.5H422.5H438.5H454L467 685.5L480 689L488.5 691.5L498.5 695.5L508.5 700.5L516 705L523.5 709.5L532.5 718.5L541.5 729L547 740.5L551.5 752.5L553.5 764V773.5L551.5 784L549 793.5L547 802.5L529.5 806L495 809L480 812L469 814.5L458.5 817L445.5 819L435.5 821.5L422.5 823.5H411H399H386.5L422.5 834L438.5 843.5L454 853.5L467 864L480 875.5L495 888L508.5 902.5L519.5 922.5L529.5 941L541.5 961L551.5 976L559.5 987.5L568 1002L578 1013L584.5 1024L597.5 1033.5L609.5 1041.5L623.5 1047H637.5L655 1054H667.5H675" stroke="#F1F5FA" stroke-width="180"/>
<path d="M353 656.5V674.5V698V723V755.5V778.5V809V846.5V880V898.5V915V939.5V952.5V972.5V991V1005V1022V1037.5V1050.5V1061.5" stroke="#F1F5FA" stroke-width="230"/>
</g>
<mask id="mask1_272_1439" style="mask-type:alpha" maskUnits="userSpaceOnUse" x="34" y="337" width="284" height="413">
<path d="M317.871 628.035C317.871 640.34 315.234 653.426 309.961 667.293C304.688 680.965 296.68 694.148 285.938 706.844C275.391 719.344 262.012 729.598 245.801 737.605C229.59 745.418 210.84 749.324 189.551 749.324C168.457 749.324 147.461 744.734 126.562 735.555C105.859 726.375 88.2812 712.703 73.8281 694.539C67.5781 708.992 63.5742 722.371 61.8164 734.676H34.8633V598.738H61.8164C66.6992 618.27 73.4375 636.629 82.0312 653.816C90.625 671.004 102.734 685.848 118.359 698.348C134.18 710.652 153.516 716.805 176.367 716.805C196.289 716.805 212.207 711.336 224.121 700.398C236.23 689.461 242.285 675.691 242.285 659.09C242.285 649.715 240.43 641.512 236.719 634.48C233.008 627.449 227.637 621.199 220.605 615.73C213.574 610.066 203.906 604.109 191.602 597.859C179.492 591.414 165.625 584.676 150 577.645C125.977 566.316 106.25 554.891 90.8203 543.367C75.3906 531.844 63.6719 520.711 55.6641 509.969C47.8516 499.031 42.3828 488.68 39.2578 478.914C36.3281 469.148 34.8633 459.285 34.8633 449.324C34.8633 431.551 39.6484 414.07 49.2188 396.883C58.7891 379.5 72.7539 365.34 91.1133 354.402C109.668 343.27 131.055 337.703 155.273 337.703C173.828 337.703 191.504 341.902 208.301 350.301C225.098 358.504 239.648 369.832 251.953 384.285C255.469 376.082 258.691 364.559 261.621 349.715H289.16V460.457H261.621C242.09 400.105 208.105 369.93 159.668 369.93C142.09 369.93 127.93 374.617 117.188 383.992C106.641 393.172 101.367 405.086 101.367 419.734C101.367 431.258 104.688 441.316 111.328 449.91C117.969 458.309 126.66 465.535 137.402 471.59C148.34 477.645 165.918 486.336 190.137 497.664C219.434 511.531 242.285 523.543 258.691 533.699C275.293 543.855 289.258 556.648 300.586 572.078C312.109 587.508 317.871 606.16 317.871 628.035Z" fill="#74A0CD"/>
</mask>
<g mask="url(#mask1_272_1439)">
<path d="M295 409.5H255L248 401.5L241.5 393.5L233.5 384.5L224.5 376.5L213 370.5L203.5 364.5L190.5 359.5L175.5 356.5H167H155.5H142L133 359.5L124 361L113.5 364.5L104.5 370.5L93 376.5L86 386L81 397L77.5 407.5L75.5 418.5V429.5V439L77.5 447L81 456L86 465L93 473.5L102.5 485.5L113.5 494.5L124 504L137 512.5L150 519.5L162.5 527L175.5 536L188.5 542.5L203 553L223 563.5L235 569.5L248 578L259.5 590L267.5 602.5L273 615.5L276.5 632V645.5V662L273 674L267.5 683.5L262 694.5L254.5 702.5L248 712L240 717L226.5 721.5L214.5 725.5L203 729L190 730H181L168 729L154 725.5L140 721.5L127.5 717L115 712L106.5 702.5L95.5 694.5C93.6667 692.167 89.7 687.4 88.5 687C87 686.5 86.5 680 82.5 679.5C78.5 679 70 667 67.5 667C65.5 667 60 667 57.5 667H48.5H41.5H34" stroke="#F1F5FA" stroke-width="180"/>
</g>
<mask id="mask2_272_1439" style="mask-type:alpha" maskUnits="userSpaceOnUse" x="228" y="133" width="378" height="413">
<path d="M605.055 533.898H577.516C573.414 517.102 566.676 502.062 557.301 488.781C542.457 504.211 525.465 517.492 506.324 528.625C487.184 539.758 461.305 545.324 428.688 545.324C392.945 545.324 359.742 536.633 329.078 519.25C298.609 501.867 274.293 477.648 256.129 446.594C237.965 415.344 228.883 380.188 228.883 341.125C228.883 313.391 233.766 286.926 243.531 261.73C253.492 236.535 267.555 214.367 285.719 195.227C304.078 176.086 325.855 161.047 351.051 150.109C376.441 139.172 404.176 133.703 434.254 133.703C483.863 133.703 524.879 149.914 557.301 182.336C561.598 173.937 565.797 161.73 569.898 145.715H596.266L600.953 291.906H572.828C567.75 267.102 558.57 245.031 545.289 225.695C532.008 206.359 516.188 191.613 497.828 181.457C479.664 171.105 460.621 165.93 440.699 165.93C418.434 165.93 398.414 172.082 380.641 184.387C362.867 196.496 348.902 215.051 338.746 240.051C328.785 265.051 323.805 296.203 323.805 333.508C323.805 369.836 328.004 400.109 336.402 424.328C344.801 448.352 355.152 466.516 367.457 478.82C379.957 491.125 392.457 499.523 404.957 504.016C417.457 508.312 429.176 510.461 440.113 510.461C464.137 510.461 485.719 504.016 504.859 491.125C524.195 478.234 540.016 462.023 552.32 442.492C564.625 422.766 572.828 403.234 576.93 383.898H605.055V533.898Z" fill="#74A0CD"/>
</mask>
<g mask="url(#mask2_272_1439)">
<path d="M683.503 215.5H584.352L564.521 193.5L547.907 179.5L535.044 171L519.501 164.5L506.638 159.5L491.631 155L474.481 151H458.938H441.252L424.637 155H408.558L389.8 159.5L378.545 164.5L363.538 171L350.139 179.5L337.812 193.5L324.949 208L317.446 221L311.015 235L305.119 250L299.76 264L294.4 280L289.576 299L283.681 315V332V349.5V367.5V386L289.576 402L294.4 421L299.76 444L311.015 462.5L324.949 478L341.564 492.5L363.538 503L389.8 514L408.558 523L431.069 526.5H458.938H480.376L506.638 523L525.933 514L547.907 503C549.515 497.667 553.909 487 558.626 487C564.521 487 566.129 470 572.561 470C578.992 470 580.064 454.5 595.607 454.5C608.041 454.5 623.655 454.5 629.908 454.5H638.483" stroke="#F1F5FA" stroke-width="180"/>
</g>
</svg>
